<svg width="25" height="24" viewBox="0 0 25 24" fill="none" xmlns="http://www.w3.org/2000/svg">
<path fill-rule="evenodd" clip-rule="evenodd" d="M6.93461 5.33333C6.93461 3.91885 7.49651 2.56229 8.49671 1.5621C9.4969 0.561903 10.8535 0 12.2679 0C13.6824 0 15.039 0.561903 16.0392 1.5621C17.0394 2.56229 17.6013 3.91885 17.6013 5.33333C17.6013 6.74782 17.0394 8.10438 16.0392 9.10457C15.039 10.1048 13.6824 10.6667 12.2679 10.6667C10.8535 10.6667 9.4969 10.1048 8.49671 9.10457C7.49651 8.10438 6.93461 6.74782 6.93461 5.33333ZM6.93461 13.3333C5.1665 13.3333 3.47081 14.0357 2.22057 15.286C0.970323 16.5362 0.267944 18.2319 0.267944 20C0.267944 21.0609 0.689372 22.0783 1.43952 22.8284C2.18966 23.5786 3.20708 24 4.26794 24H20.2679C21.3288 24 22.3462 23.5786 23.0964 22.8284C23.8465 22.0783 24.2679 21.0609 24.2679 20C24.2679 18.2319 23.5656 16.5362 22.3153 15.286C21.0651 14.0357 19.3694 13.3333 17.6013 13.3333H6.93461Z" fill="#ACACAC"/>
</svg>
