<svg width="29" height="30" viewBox="0 0 29 30" fill="none" xmlns="http://www.w3.org/2000/svg">
<path d="M26.2091 2.35294H22.3856V0.882353C22.3856 0.648338 22.2927 0.423908 22.1272 0.258435C21.9617 0.0929618 21.7373 0 21.5033 0C21.2692 0 21.0448 0.0929618 20.8793 0.258435C20.7139 0.423908 20.6209 0.648338 20.6209 0.882353V2.35294H8.26797V0.882353C8.26797 0.648338 8.17501 0.423908 8.00953 0.258435C7.84406 0.0929618 7.61963 0 7.38562 0C7.1516 0 6.92717 0.0929618 6.7617 0.258435C6.59623 0.423908 6.50326 0.648338 6.50326 0.882353V2.35294H2.67973C2.1337 2.35294 1.61003 2.56985 1.22393 2.95596C0.837822 3.34206 0.620911 3.86573 0.620911 4.41177V27.9412C0.620911 28.4872 0.837822 29.0109 1.22393 29.397C1.61003 29.7831 2.1337 30 2.67973 30H26.2091C26.7552 30 27.2788 29.7831 27.665 29.397C28.0511 29.0109 28.268 28.4872 28.268 27.9412V4.41177C28.268 3.86573 28.0511 3.34206 27.665 2.95596C27.2788 2.56985 26.7552 2.35294 26.2091 2.35294ZM2.67973 4.11765H6.50326V5.58824C6.50326 5.82225 6.59623 6.04668 6.7617 6.21215C6.92717 6.37763 7.1516 6.47059 7.38562 6.47059C7.61963 6.47059 7.84406 6.37763 8.00953 6.21215C8.17501 6.04668 8.26797 5.82225 8.26797 5.58824V4.11765H20.6209V5.58824C20.6209 5.82225 20.7139 6.04668 20.8793 6.21215C21.0448 6.37763 21.2692 6.47059 21.5033 6.47059C21.7373 6.47059 21.9617 6.37763 22.1272 6.21215C22.2927 6.04668 22.3856 5.82225 22.3856 5.58824V4.11765H26.2091C26.2871 4.11765 26.362 4.14863 26.4171 4.20379C26.4723 4.25895 26.5033 4.33376 26.5033 4.41177V9.41177H2.38562V4.41177C2.38562 4.33376 2.4166 4.25895 2.47176 4.20379C2.52692 4.14863 2.60173 4.11765 2.67973 4.11765ZM26.2091 28.2353H2.67973C2.60173 28.2353 2.52692 28.2043 2.47176 28.1492C2.4166 28.094 2.38562 28.0192 2.38562 27.9412V11.1765H26.5033V27.9412C26.5033 28.0192 26.4723 28.094 26.4171 28.1492C26.362 28.2043 26.2871 28.2353 26.2091 28.2353ZM11.7974 15V24.4118C11.7974 24.6458 11.7044 24.8702 11.5389 25.0357C11.3735 25.2012 11.149 25.2941 10.915 25.2941C10.681 25.2941 10.4566 25.2012 10.2911 25.0357C10.1256 24.8702 10.0327 24.6458 10.0327 24.4118V16.4279L8.9562 16.9662C8.8525 17.0179 8.73961 17.0488 8.624 17.0569C8.50838 17.065 8.39229 17.0503 8.28236 17.0136C8.17244 16.9768 8.07082 16.9188 7.98332 16.8428C7.89581 16.7668 7.82414 16.6743 7.77238 16.5706C7.72062 16.4669 7.6898 16.354 7.68167 16.2384C7.67354 16.1228 7.68826 16.0067 7.725 15.8967C7.76173 15.7868 7.81976 15.6852 7.89576 15.5977C7.97177 15.5102 8.06426 15.4385 8.16797 15.3868L10.5209 14.2103C10.6555 14.1431 10.8049 14.1115 10.9552 14.1183C11.1054 14.1251 11.2514 14.1703 11.3792 14.2494C11.5071 14.3285 11.6127 14.439 11.6859 14.5704C11.759 14.7017 11.7974 14.8496 11.7974 15ZM20.5577 19.3015L17.3856 23.5294H20.3268C20.5608 23.5294 20.7852 23.6224 20.9507 23.7878C21.1162 23.9533 21.2091 24.1778 21.2091 24.4118C21.2091 24.6458 21.1162 24.8702 20.9507 25.0357C20.7852 25.2012 20.5608 25.2941 20.3268 25.2941H15.6209C15.457 25.2941 15.2964 25.2485 15.157 25.1623C15.0176 25.0762 14.905 24.9529 14.8317 24.8064C14.7584 24.6598 14.7274 24.4957 14.7421 24.3325C14.7568 24.1693 14.8167 24.0134 14.915 23.8824L19.1503 18.2353C19.2723 18.075 19.36 17.8915 19.4081 17.6959C19.4562 17.5004 19.4636 17.297 19.4299 17.0985C19.3962 16.8999 19.3221 16.7104 19.2121 16.5417C19.1022 16.373 18.9587 16.2287 18.7907 16.1177C18.6227 16.0067 18.4337 15.9314 18.2353 15.8964C18.037 15.8615 17.8336 15.8676 17.6378 15.9145C17.4419 15.9614 17.2578 16.048 17.0968 16.1689C16.9358 16.2899 16.8013 16.4426 16.7018 16.6176C16.6492 16.7274 16.5744 16.825 16.4823 16.9044C16.3901 16.9839 16.2825 17.0434 16.1662 17.0792C16.0499 17.1151 15.9275 17.1265 15.8066 17.1128C15.6857 17.099 15.569 17.0604 15.4637 16.9994C15.3584 16.9384 15.2669 16.8563 15.1949 16.7582C15.1229 16.6601 15.072 16.5482 15.0453 16.4294C15.0186 16.3107 15.0168 16.1878 15.04 16.0683C15.0631 15.9489 15.1107 15.8355 15.1797 15.7353C15.4015 15.3546 15.6986 15.0232 16.053 14.7614C16.4074 14.4997 16.8115 14.313 17.2405 14.213C17.6696 14.1129 18.1145 14.1015 18.5481 14.1795C18.9817 14.2575 19.3948 14.4233 19.7621 14.6666C20.1294 14.9099 20.4431 15.2257 20.684 15.5945C20.925 15.9634 21.088 16.3776 21.1632 16.8117C21.2384 17.2458 21.2241 17.6906 21.1212 18.119C21.0184 18.5474 20.8291 18.9503 20.565 19.3029L20.5577 19.3015Z" fill="#ACACAC"/>
</svg>
