<svg width="16" height="16" viewBox="0 0 16 16" fill="none" xmlns="http://www.w3.org/2000/svg">
<path fill-rule="evenodd" clip-rule="evenodd" d="M13.9396 7.65566C12.3336 6.12886 10.2025 5.27742 7.98658 5.27733C5.77047 5.27732 3.63907 6.12876 2.03291 7.65566C1.91206 7.77372 1.71861 7.77223 1.59958 7.65233L0.443248 6.48566C0.382984 6.42489 0.34942 6.34262 0.349983 6.25704C0.350546 6.17146 0.385189 6.08963 0.446248 6.02966C4.66135 1.99011 11.3112 1.99011 15.5262 6.02966C15.5873 6.08967 15.6218 6.17153 15.6223 6.25711C15.6228 6.34269 15.5892 6.42494 15.5289 6.48566L14.3729 7.65233C14.2538 7.77205 14.0605 7.77354 13.9396 7.65566ZM7.98663 9.07299C9.20412 9.07292 10.3782 9.52545 11.2806 10.3427C11.4027 10.4586 11.595 10.4561 11.714 10.337L12.8686 9.17032C12.9294 9.10913 12.9632 9.02611 12.9623 8.93985C12.9614 8.85358 12.926 8.77127 12.864 8.71132C10.1158 6.15494 5.85983 6.15494 3.11163 8.71132C3.04955 8.77127 3.01413 8.85362 3.01332 8.93992C3.01251 9.02621 3.04636 9.10922 3.1073 9.17032L4.26163 10.337C4.38062 10.4561 4.5729 10.4586 4.69496 10.3427C5.59684 9.52599 6.76995 9.07349 7.98663 9.07299ZM10.2056 11.8573C10.2673 11.7967 10.3013 11.7133 10.2996 11.6268C10.2978 11.5403 10.2604 11.4584 10.1962 11.4003C8.92068 10.3214 7.05249 10.3214 5.77692 11.4003C5.71269 11.4583 5.67525 11.5402 5.67342 11.6267C5.67159 11.7132 5.70554 11.7967 5.76725 11.8573L7.76491 13.873C7.82347 13.9322 7.90329 13.9656 7.98658 13.9656C8.06987 13.9656 8.1497 13.9322 8.20825 13.873L10.2056 11.8573Z" fill="#091E2B"/>
</svg>
